<svg xmlns="http://www.w3.org/2000/svg" width="1600" height="1000" viewBox="0 0 1600 1000"><defs><linearGradient id="water" x2="0" y2="1"><stop stop-color="#aed5d4"/><stop offset="1" stop-color="#7dbbbf"/></linearGradient><pattern id="waves" width="64" height="35" patternUnits="userSpaceOnUse"><path d="M8 18q9 5 19 0m12 7q7 4 14 0" fill="none" stroke="#e1efdf" stroke-opacity=".35" stroke-width="2"/></pattern><filter id="shadow" x="-50%" y="-50%" width="200%" height="200%"><feDropShadow dx="0" dy="10" stdDeviation="8" flood-color="#46695b" flood-opacity=".15"/></filter><g id="tree"><ellipse cy="21" rx="24" ry="10" fill="#608b68" opacity=".2"/><path d="M-4 0v25h9V0" fill="#876e50"/><path d="M0-85C-22-65-43-24-29-12-53 12-11 24 0 12 27 29 49 6 29-13 40-30 17-64 0-85" fill="#527d66" stroke="#406855" stroke-width="2"/><path d="M0-75C-14-55-30-24-20-15-30 2-7 9 0 2 11 12 29 2 18-14 24-26 10-56 0-75" fill="#749b76"/><path d="M-3-58q-11 21-8 34" stroke="#91ad7d" stroke-width="4" fill="none" stroke-linecap="round"/></g><g id="bush"><ellipse rx="21" ry="12" fill="#8ca86f"/><circle cx="-10" cy="-6" r="11" fill="#99b579"/><circle cx="7" cy="-8" r="13" fill="#a6bd81"/></g></defs><rect width="1600" height="1000" fill="url(#water)"/><rect width="1600" height="1000" fill="url(#waves)"/><path d="M-80 0H1600V350Q1530 362 1470 422T1480 550Q1580 618 1500 678T1350 785Q1290 918 1090 915L860 914Q685 951 594 920T339 900Q183 919 86 803T-40 735Z" fill="#77977b"/><path d="M-80 0H1600V324Q1520 345 1450 410T1464 530Q1550 588 1480 654T1327 760Q1270 890 1080 887L853 885Q687 920 591 890T338 869Q178 885 91 774T-40 703Z" fill="#b8c997" stroke="#d6dcb2" stroke-width="14"/><path d="M245 476Q460 383 710 493T1118 439M763 486Q708 648 865 784M696 493Q481 609 332 739M814 488Q1056 564 1160 692M720 486Q839 355 960 254" stroke="#a6b989" stroke-width="79" fill="none"/><path d="M245 476Q460 383 710 493T1118 439M763 486Q708 648 865 784M696 493Q481 609 332 739M814 488Q1056 564 1160 692M720 486Q839 355 960 254" stroke="#e1d9ad" stroke-width="61" fill="none"/><path d="M245 476Q460 383 710 493T1118 439M763 486Q708 648 865 784M696 493Q481 609 332 739M814 488Q1056 564 1160 692M720 486Q839 355 960 254" stroke="#eee3bc" stroke-width="43" fill="none"/><path d="M534 499l-3-6m3 6 4-4" stroke="#8eaa78" opacity=".35" fill="none" stroke-width="2"/><path d="M838 249l-3-6m3 6 4-4" stroke="#8eaa78" opacity=".35" fill="none" stroke-width="2"/><path d="M465 164l-3-6m3 6 4-4" stroke="#8eaa78" opacity=".35" fill="none" stroke-width="2"/><path d="M244 260l-3-6m3 6 4-4" stroke="#8eaa78" opacity=".35" fill="none" stroke-width="2"/><path d="M576 638l-3-6m3 6 4-4" stroke="#8eaa78" opacity=".35" fill="none" stroke-width="2"/><path d="M498 530l-3-6m3 6 4-4" stroke="#8eaa78" opacity=".35" fill="none" stroke-width="2"/><path d="M1384 151l-3-6m3 6 4-4" stroke="#8eaa78" opacity=".35" fill="none" stroke-width="2"/><path d="M1010 619l-3-6m3 6 4-4" stroke="#8eaa78" opacity=".35" fill="none" stroke-width="2"/><path d="M998 519l-3-6m3 6 4-4" stroke="#8eaa78" opacity=".35" fill="none" stroke-width="2"/><path d="M1083 706l-3-6m3 6 4-4" stroke="#8eaa78" opacity=".35" fill="none" stroke-width="2"/><path d="M463 532l-3-6m3 6 4-4" stroke="#8eaa78" opacity=".35" fill="none" stroke-width="2"/><path d="M253 616l-3-6m3 6 4-4" stroke="#8eaa78" opacity=".35" fill="none" stroke-width="2"/><path d="M549 140l-3-6m3 6 4-4" stroke="#8eaa78" opacity=".35" fill="none" stroke-width="2"/><path d="M616 652l-3-6m3 6 4-4" stroke="#8eaa78" opacity=".35" fill="none" stroke-width="2"/><path d="M904 605l-3-6m3 6 4-4" stroke="#8eaa78" opacity=".35" fill="none" stroke-width="2"/><path d="M846 236l-3-6m3 6 4-4" stroke="#8eaa78" opacity=".35" fill="none" stroke-width="2"/><path d="M1427 384l-3-6m3 6 4-4" stroke="#8eaa78" opacity=".35" fill="none" stroke-width="2"/><path d="M268 184l-3-6m3 6 4-4" stroke="#8eaa78" opacity=".35" fill="none" stroke-width="2"/><path d="M861 755l-3-6m3 6 4-4" stroke="#8eaa78" opacity=".35" fill="none" stroke-width="2"/><path d="M842 230l-3-6m3 6 4-4" stroke="#8eaa78" opacity=".35" fill="none" stroke-width="2"/><path d="M1423 179l-3-6m3 6 4-4" stroke="#8eaa78" opacity=".35" fill="none" stroke-width="2"/><path d="M763 360l-3-6m3 6 4-4" stroke="#8eaa78" opacity=".35" fill="none" stroke-width="2"/><path d="M246 629l-3-6m3 6 4-4" stroke="#8eaa78" opacity=".35" fill="none" stroke-width="2"/><path d="M1400 649l-3-6m3 6 4-4" stroke="#8eaa78" opacity=".35" fill="none" stroke-width="2"/><path d="M495 715l-3-6m3 6 4-4" stroke="#8eaa78" opacity=".35" fill="none" stroke-width="2"/><path d="M361 741l-3-6m3 6 4-4" stroke="#8eaa78" opacity=".35" fill="none" stroke-width="2"/><path d="M201 672l-3-6m3 6 4-4" stroke="#8eaa78" opacity=".35" fill="none" stroke-width="2"/><path d="M146 620l-3-6m3 6 4-4" stroke="#8eaa78" opacity=".35" fill="none" stroke-width="2"/><path d="M467 271l-3-6m3 6 4-4" stroke="#8eaa78" opacity=".35" fill="none" stroke-width="2"/><path d="M1255 587l-3-6m3 6 4-4" stroke="#8eaa78" opacity=".35" fill="none" stroke-width="2"/><path d="M1266 575l-3-6m3 6 4-4" stroke="#8eaa78" opacity=".35" fill="none" stroke-width="2"/><path d="M655 690l-3-6m3 6 4-4" stroke="#8eaa78" opacity=".35" fill="none" stroke-width="2"/><path d="M800 556l-3-6m3 6 4-4" stroke="#8eaa78" opacity=".35" fill="none" stroke-width="2"/><path d="M346 282l-3-6m3 6 4-4" stroke="#8eaa78" opacity=".35" fill="none" stroke-width="2"/><path d="M1301 219l-3-6m3 6 4-4" stroke="#8eaa78" opacity=".35" fill="none" stroke-width="2"/><path d="M1159 826l-3-6m3 6 4-4" stroke="#8eaa78" opacity=".35" fill="none" stroke-width="2"/><path d="M712 485l-3-6m3 6 4-4" stroke="#8eaa78" opacity=".35" fill="none" stroke-width="2"/><path d="M1388 626l-3-6m3 6 4-4" stroke="#8eaa78" opacity=".35" fill="none" stroke-width="2"/><path d="M1101 758l-3-6m3 6 4-4" stroke="#8eaa78" opacity=".35" fill="none" stroke-width="2"/><path d="M474 436l-3-6m3 6 4-4" stroke="#8eaa78" opacity=".35" fill="none" stroke-width="2"/><path d="M377 484l-3-6m3 6 4-4" stroke="#8eaa78" opacity=".35" fill="none" stroke-width="2"/><path d="M1152 411l-3-6m3 6 4-4" stroke="#8eaa78" opacity=".35" fill="none" stroke-width="2"/><path d="M1114 792l-3-6m3 6 4-4" stroke="#8eaa78" opacity=".35" fill="none" stroke-width="2"/><path d="M216 639l-3-6m3 6 4-4" stroke="#8eaa78" opacity=".35" fill="none" stroke-width="2"/><path d="M1186 345l-3-6m3 6 4-4" stroke="#8eaa78" opacity=".35" fill="none" stroke-width="2"/><path d="M774 369l-3-6m3 6 4-4" stroke="#8eaa78" opacity=".35" fill="none" stroke-width="2"/><path d="M94 422l-3-6m3 6 4-4" stroke="#8eaa78" opacity=".35" fill="none" stroke-width="2"/><path d="M772 345l-3-6m3 6 4-4" stroke="#8eaa78" opacity=".35" fill="none" stroke-width="2"/><path d="M616 154l-3-6m3 6 4-4" stroke="#8eaa78" opacity=".35" fill="none" stroke-width="2"/><path d="M937 380l-3-6m3 6 4-4" stroke="#8eaa78" opacity=".35" fill="none" stroke-width="2"/><path d="M841 425l-3-6m3 6 4-4" stroke="#8eaa78" opacity=".35" fill="none" stroke-width="2"/><path d="M923 299l-3-6m3 6 4-4" stroke="#8eaa78" opacity=".35" fill="none" stroke-width="2"/><path d="M1416 525l-3-6m3 6 4-4" stroke="#8eaa78" opacity=".35" fill="none" stroke-width="2"/><path d="M308 290l-3-6m3 6 4-4" stroke="#8eaa78" opacity=".35" fill="none" stroke-width="2"/><path d="M1428 146l-3-6m3 6 4-4" stroke="#8eaa78" opacity=".35" fill="none" stroke-width="2"/><path d="M483 284l-3-6m3 6 4-4" stroke="#8eaa78" opacity=".35" fill="none" stroke-width="2"/><path d="M684 239l-3-6m3 6 4-4" stroke="#8eaa78" opacity=".35" fill="none" stroke-width="2"/><path d="M97 509l-3-6m3 6 4-4" stroke="#8eaa78" opacity=".35" fill="none" stroke-width="2"/><path d="M770 294l-3-6m3 6 4-4" stroke="#8eaa78" opacity=".35" fill="none" stroke-width="2"/><path d="M1235 566l-3-6m3 6 4-4" stroke="#8eaa78" opacity=".35" fill="none" stroke-width="2"/><path d="M544 262l-3-6m3 6 4-4" stroke="#8eaa78" opacity=".35" fill="none" stroke-width="2"/><path d="M909 697l-3-6m3 6 4-4" stroke="#8eaa78" opacity=".35" fill="none" stroke-width="2"/><path d="M983 536l-3-6m3 6 4-4" stroke="#8eaa78" opacity=".35" fill="none" stroke-width="2"/><path d="M925 202l-3-6m3 6 4-4" stroke="#8eaa78" opacity=".35" fill="none" stroke-width="2"/><path d="M1275 191l-3-6m3 6 4-4" stroke="#8eaa78" opacity=".35" fill="none" stroke-width="2"/><path d="M661 217l-3-6m3 6 4-4" stroke="#8eaa78" opacity=".35" fill="none" stroke-width="2"/><path d="M139 207l-3-6m3 6 4-4" stroke="#8eaa78" opacity=".35" fill="none" stroke-width="2"/><path d="M1428 229l-3-6m3 6 4-4" stroke="#8eaa78" opacity=".35" fill="none" stroke-width="2"/><path d="M1136 659l-3-6m3 6 4-4" stroke="#8eaa78" opacity=".35" fill="none" stroke-width="2"/><path d="M807 277l-3-6m3 6 4-4" stroke="#8eaa78" opacity=".35" fill="none" stroke-width="2"/><path d="M1104 619l-3-6m3 6 4-4" stroke="#8eaa78" opacity=".35" fill="none" stroke-width="2"/><path d="M374 738l-3-6m3 6 4-4" stroke="#8eaa78" opacity=".35" fill="none" stroke-width="2"/><path d="M198 314l-3-6m3 6 4-4" stroke="#8eaa78" opacity=".35" fill="none" stroke-width="2"/><path d="M104 263l-3-6m3 6 4-4" stroke="#8eaa78" opacity=".35" fill="none" stroke-width="2"/><path d="M767 515l-3-6m3 6 4-4" stroke="#8eaa78" opacity=".35" fill="none" stroke-width="2"/><path d="M1418 707l-3-6m3 6 4-4" stroke="#8eaa78" opacity=".35" fill="none" stroke-width="2"/><path d="M317 426l-3-6m3 6 4-4" stroke="#8eaa78" opacity=".35" fill="none" stroke-width="2"/><path d="M789 453l-3-6m3 6 4-4" stroke="#8eaa78" opacity=".35" fill="none" stroke-width="2"/><path d="M819 123l-3-6m3 6 4-4" stroke="#8eaa78" opacity=".35" fill="none" stroke-width="2"/><path d="M1392 630l-3-6m3 6 4-4" stroke="#8eaa78" opacity=".35" fill="none" stroke-width="2"/><path d="M500 182l-3-6m3 6 4-4" stroke="#8eaa78" opacity=".35" fill="none" stroke-width="2"/><path d="M1334 153l-3-6m3 6 4-4" stroke="#8eaa78" opacity=".35" fill="none" stroke-width="2"/><path d="M1257 296l-3-6m3 6 4-4" stroke="#8eaa78" opacity=".35" fill="none" stroke-width="2"/><path d="M434 465l-3-6m3 6 4-4" stroke="#8eaa78" opacity=".35" fill="none" stroke-width="2"/><path d="M952 572l-3-6m3 6 4-4" stroke="#8eaa78" opacity=".35" fill="none" stroke-width="2"/><path d="M317 205l-3-6m3 6 4-4" stroke="#8eaa78" opacity=".35" fill="none" stroke-width="2"/><path d="M480 739l-3-6m3 6 4-4" stroke="#8eaa78" opacity=".35" fill="none" stroke-width="2"/><path d="M528 629l-3-6m3 6 4-4" stroke="#8eaa78" opacity=".35" fill="none" stroke-width="2"/><path d="M1039 278l-3-6m3 6 4-4" stroke="#8eaa78" opacity=".35" fill="none" stroke-width="2"/><path d="M850 244l-3-6m3 6 4-4" stroke="#8eaa78" opacity=".35" fill="none" stroke-width="2"/><path d="M292 714l-3-6m3 6 4-4" stroke="#8eaa78" opacity=".35" fill="none" stroke-width="2"/><path d="M997 783l-3-6m3 6 4-4" stroke="#8eaa78" opacity=".35" fill="none" stroke-width="2"/><path d="M328 570l-3-6m3 6 4-4" stroke="#8eaa78" opacity=".35" fill="none" stroke-width="2"/><path d="M1123 212l-3-6m3 6 4-4" stroke="#8eaa78" opacity=".35" fill="none" stroke-width="2"/><path d="M1035 697l-3-6m3 6 4-4" stroke="#8eaa78" opacity=".35" fill="none" stroke-width="2"/><path d="M876 489l-3-6m3 6 4-4" stroke="#8eaa78" opacity=".35" fill="none" stroke-width="2"/><path d="M1002 350l-3-6m3 6 4-4" stroke="#8eaa78" opacity=".35" fill="none" stroke-width="2"/><path d="M174 322l-3-6m3 6 4-4" stroke="#8eaa78" opacity=".35" fill="none" stroke-width="2"/><path d="M170 576l-3-6m3 6 4-4" stroke="#8eaa78" opacity=".35" fill="none" stroke-width="2"/><path d="M298 230l-3-6m3 6 4-4" stroke="#8eaa78" opacity=".35" fill="none" stroke-width="2"/><path d="M502 124l-3-6m3 6 4-4" stroke="#8eaa78" opacity=".35" fill="none" stroke-width="2"/><path d="M1300 746l-3-6m3 6 4-4" stroke="#8eaa78" opacity=".35" fill="none" stroke-width="2"/><path d="M116 790l-3-6m3 6 4-4" stroke="#8eaa78" opacity=".35" fill="none" stroke-width="2"/><path d="M815 562l-3-6m3 6 4-4" stroke="#8eaa78" opacity=".35" fill="none" stroke-width="2"/><path d="M1151 215l-3-6m3 6 4-4" stroke="#8eaa78" opacity=".35" fill="none" stroke-width="2"/><path d="M1299 634l-3-6m3 6 4-4" stroke="#8eaa78" opacity=".35" fill="none" stroke-width="2"/><path d="M1235 325l-3-6m3 6 4-4" stroke="#8eaa78" opacity=".35" fill="none" stroke-width="2"/><path d="M1097 354l-3-6m3 6 4-4" stroke="#8eaa78" opacity=".35" fill="none" stroke-width="2"/><path d="M733 658l-3-6m3 6 4-4" stroke="#8eaa78" opacity=".35" fill="none" stroke-width="2"/><path d="M856 652l-3-6m3 6 4-4" stroke="#8eaa78" opacity=".35" fill="none" stroke-width="2"/><path d="M1395 320l-3-6m3 6 4-4" stroke="#8eaa78" opacity=".35" fill="none" stroke-width="2"/><path d="M83 416l-3-6m3 6 4-4" stroke="#8eaa78" opacity=".35" fill="none" stroke-width="2"/><path d="M1325 423l-3-6m3 6 4-4" stroke="#8eaa78" opacity=".35" fill="none" stroke-width="2"/><path d="M233 448l-3-6m3 6 4-4" stroke="#8eaa78" opacity=".35" fill="none" stroke-width="2"/><path d="M895 349l-3-6m3 6 4-4" stroke="#8eaa78" opacity=".35" fill="none" stroke-width="2"/><path d="M1365 423l-3-6m3 6 4-4" stroke="#8eaa78" opacity=".35" fill="none" stroke-width="2"/><path d="M233 680l-3-6m3 6 4-4" stroke="#8eaa78" opacity=".35" fill="none" stroke-width="2"/><path d="M929 498l-3-6m3 6 4-4" stroke="#8eaa78" opacity=".35" fill="none" stroke-width="2"/><path d="M727 648l-3-6m3 6 4-4" stroke="#8eaa78" opacity=".35" fill="none" stroke-width="2"/><path d="M688 760l-3-6m3 6 4-4" stroke="#8eaa78" opacity=".35" fill="none" stroke-width="2"/><path d="M800 422l-3-6m3 6 4-4" stroke="#8eaa78" opacity=".35" fill="none" stroke-width="2"/><path d="M1404 231l-3-6m3 6 4-4" stroke="#8eaa78" opacity=".35" fill="none" stroke-width="2"/><path d="M470 616l-3-6m3 6 4-4" stroke="#8eaa78" opacity=".35" fill="none" stroke-width="2"/><path d="M827 507l-3-6m3 6 4-4" stroke="#8eaa78" opacity=".35" fill="none" stroke-width="2"/><path d="M1268 439l-3-6m3 6 4-4" stroke="#8eaa78" opacity=".35" fill="none" stroke-width="2"/><path d="M490 417l-3-6m3 6 4-4" stroke="#8eaa78" opacity=".35" fill="none" stroke-width="2"/><path d="M883 747l-3-6m3 6 4-4" stroke="#8eaa78" opacity=".35" fill="none" stroke-width="2"/><path d="M855 820l-3-6m3 6 4-4" stroke="#8eaa78" opacity=".35" fill="none" stroke-width="2"/><path d="M1142 827l-3-6m3 6 4-4" stroke="#8eaa78" opacity=".35" fill="none" stroke-width="2"/><path d="M798 812l-3-6m3 6 4-4" stroke="#8eaa78" opacity=".35" fill="none" stroke-width="2"/><path d="M1308 719l-3-6m3 6 4-4" stroke="#8eaa78" opacity=".35" fill="none" stroke-width="2"/><path d="M811 809l-3-6m3 6 4-4" stroke="#8eaa78" opacity=".35" fill="none" stroke-width="2"/><path d="M945 320l-3-6m3 6 4-4" stroke="#8eaa78" opacity=".35" fill="none" stroke-width="2"/><path d="M1073 661l-3-6m3 6 4-4" stroke="#8eaa78" opacity=".35" fill="none" stroke-width="2"/><path d="M1108 203l-3-6m3 6 4-4" stroke="#8eaa78" opacity=".35" fill="none" stroke-width="2"/><path d="M620 287l-3-6m3 6 4-4" stroke="#8eaa78" opacity=".35" fill="none" stroke-width="2"/><path d="M210 630l-3-6m3 6 4-4" stroke="#8eaa78" opacity=".35" fill="none" stroke-width="2"/><path d="M624 549l-3-6m3 6 4-4" stroke="#8eaa78" opacity=".35" fill="none" stroke-width="2"/><path d="M309 759l-3-6m3 6 4-4" stroke="#8eaa78" opacity=".35" fill="none" stroke-width="2"/><path d="M631 418l-3-6m3 6 4-4" stroke="#8eaa78" opacity=".35" fill="none" stroke-width="2"/><path d="M631 636l-3-6m3 6 4-4" stroke="#8eaa78" opacity=".35" fill="none" stroke-width="2"/><path d="M620 403l-3-6m3 6 4-4" stroke="#8eaa78" opacity=".35" fill="none" stroke-width="2"/><path d="M1364 541l-3-6m3 6 4-4" stroke="#8eaa78" opacity=".35" fill="none" stroke-width="2"/><path d="M570 490l-3-6m3 6 4-4" stroke="#8eaa78" opacity=".35" fill="none" stroke-width="2"/><path d="M573 373l-3-6m3 6 4-4" stroke="#8eaa78" opacity=".35" fill="none" stroke-width="2"/><path d="M1103 588l-3-6m3 6 4-4" stroke="#8eaa78" opacity=".35" fill="none" stroke-width="2"/><path d="M581 359l-3-6m3 6 4-4" stroke="#8eaa78" opacity=".35" fill="none" stroke-width="2"/><path d="M1291 657l-3-6m3 6 4-4" stroke="#8eaa78" opacity=".35" fill="none" stroke-width="2"/><path d="M470 496l-3-6m3 6 4-4" stroke="#8eaa78" opacity=".35" fill="none" stroke-width="2"/><path d="M1087 228l-3-6m3 6 4-4" stroke="#8eaa78" opacity=".35" fill="none" stroke-width="2"/><path d="M298 517l-3-6m3 6 4-4" stroke="#8eaa78" opacity=".35" fill="none" stroke-width="2"/><path d="M242 790l-3-6m3 6 4-4" stroke="#8eaa78" opacity=".35" fill="none" stroke-width="2"/><path d="M419 700l-3-6m3 6 4-4" stroke="#8eaa78" opacity=".35" fill="none" stroke-width="2"/><path d="M945 166l-3-6m3 6 4-4" stroke="#8eaa78" opacity=".35" fill="none" stroke-width="2"/><path d="M350 142l-3-6m3 6 4-4" stroke="#8eaa78" opacity=".35" fill="none" stroke-width="2"/><path d="M1319 315l-3-6m3 6 4-4" stroke="#8eaa78" opacity=".35" fill="none" stroke-width="2"/><path d="M611 209l-3-6m3 6 4-4" stroke="#8eaa78" opacity=".35" fill="none" stroke-width="2"/><path d="M265 593l-3-6m3 6 4-4" stroke="#8eaa78" opacity=".35" fill="none" stroke-width="2"/><path d="M1011 805l-3-6m3 6 4-4" stroke="#8eaa78" opacity=".35" fill="none" stroke-width="2"/><path d="M648 699l-3-6m3 6 4-4" stroke="#8eaa78" opacity=".35" fill="none" stroke-width="2"/><path d="M259 249l-3-6m3 6 4-4" stroke="#8eaa78" opacity=".35" fill="none" stroke-width="2"/><path d="M1313 486l-3-6m3 6 4-4" stroke="#8eaa78" opacity=".35" fill="none" stroke-width="2"/><path d="M1406 187l-3-6m3 6 4-4" stroke="#8eaa78" opacity=".35" fill="none" stroke-width="2"/><path d="M725 159l-3-6m3 6 4-4" stroke="#8eaa78" opacity=".35" fill="none" stroke-width="2"/><path d="M241 260l-3-6m3 6 4-4" stroke="#8eaa78" opacity=".35" fill="none" stroke-width="2"/><path d="M1408 495l-3-6m3 6 4-4" stroke="#8eaa78" opacity=".35" fill="none" stroke-width="2"/><path d="M223 356l-3-6m3 6 4-4" stroke="#8eaa78" opacity=".35" fill="none" stroke-width="2"/><path d="M145 734l-3-6m3 6 4-4" stroke="#8eaa78" opacity=".35" fill="none" stroke-width="2"/><path d="M723 347l-3-6m3 6 4-4" stroke="#8eaa78" opacity=".35" fill="none" stroke-width="2"/><path d="M677 486l-3-6m3 6 4-4" stroke="#8eaa78" opacity=".35" fill="none" stroke-width="2"/><path d="M739 187l-3-6m3 6 4-4" stroke="#8eaa78" opacity=".35" fill="none" stroke-width="2"/><path d="M1135 236l-3-6m3 6 4-4" stroke="#8eaa78" opacity=".35" fill="none" stroke-width="2"/><path d="M1318 476l-3-6m3 6 4-4" stroke="#8eaa78" opacity=".35" fill="none" stroke-width="2"/><path d="M959 283l-3-6m3 6 4-4" stroke="#8eaa78" opacity=".35" fill="none" stroke-width="2"/><path d="M391 381l-3-6m3 6 4-4" stroke="#8eaa78" opacity=".35" fill="none" stroke-width="2"/><path d="M867 272l-3-6m3 6 4-4" stroke="#8eaa78" opacity=".35" fill="none" stroke-width="2"/><path d="M953 186l-3-6m3 6 4-4" stroke="#8eaa78" opacity=".35" fill="none" stroke-width="2"/><path d="M274 667l-3-6m3 6 4-4" stroke="#8eaa78" opacity=".35" fill="none" stroke-width="2"/><path d="M525 204l-3-6m3 6 4-4" stroke="#8eaa78" opacity=".35" fill="none" stroke-width="2"/><path d="M670 300l-3-6m3 6 4-4" stroke="#8eaa78" opacity=".35" fill="none" stroke-width="2"/><path d="M760 323l-3-6m3 6 4-4" stroke="#8eaa78" opacity=".35" fill="none" stroke-width="2"/><path d="M293 172l-3-6m3 6 4-4" stroke="#8eaa78" opacity=".35" fill="none" stroke-width="2"/><path d="M187 689l-3-6m3 6 4-4" stroke="#8eaa78" opacity=".35" fill="none" stroke-width="2"/><path d="M433 294l-3-6m3 6 4-4" stroke="#8eaa78" opacity=".35" fill="none" stroke-width="2"/><path d="M1215 774l-3-6m3 6 4-4" stroke="#8eaa78" opacity=".35" fill="none" stroke-width="2"/><path d="M739 422l-3-6m3 6 4-4" stroke="#8eaa78" opacity=".35" fill="none" stroke-width="2"/><path d="M566 632l-3-6m3 6 4-4" stroke="#8eaa78" opacity=".35" fill="none" stroke-width="2"/><path d="M1050 233l-3-6m3 6 4-4" stroke="#8eaa78" opacity=".35" fill="none" stroke-width="2"/><path d="M1222 204l-3-6m3 6 4-4" stroke="#8eaa78" opacity=".35" fill="none" stroke-width="2"/><path d="M351 255l-3-6m3 6 4-4" stroke="#8eaa78" opacity=".35" fill="none" stroke-width="2"/><path d="M531 454l-3-6m3 6 4-4" stroke="#8eaa78" opacity=".35" fill="none" stroke-width="2"/><path d="M516 537l-3-6m3 6 4-4" stroke="#8eaa78" opacity=".35" fill="none" stroke-width="2"/><path d="M426 293l-3-6m3 6 4-4" stroke="#8eaa78" opacity=".35" fill="none" stroke-width="2"/><path d="M346 570l-3-6m3 6 4-4" stroke="#8eaa78" opacity=".35" fill="none" stroke-width="2"/><path d="M194 579l-3-6m3 6 4-4" stroke="#8eaa78" opacity=".35" fill="none" stroke-width="2"/><path d="M1269 803l-3-6m3 6 4-4" stroke="#8eaa78" opacity=".35" fill="none" stroke-width="2"/><path d="M1326 414l-3-6m3 6 4-4" stroke="#8eaa78" opacity=".35" fill="none" stroke-width="2"/><path d="M919 567l-3-6m3 6 4-4" stroke="#8eaa78" opacity=".35" fill="none" stroke-width="2"/><path d="M1254 823l-3-6m3 6 4-4" stroke="#8eaa78" opacity=".35" fill="none" stroke-width="2"/><path d="M831 828l-3-6m3 6 4-4" stroke="#8eaa78" opacity=".35" fill="none" stroke-width="2"/><path d="M1225 621l-3-6m3 6 4-4" stroke="#8eaa78" opacity=".35" fill="none" stroke-width="2"/><path d="M820 660l-3-6m3 6 4-4" stroke="#8eaa78" opacity=".35" fill="none" stroke-width="2"/><path d="M453 436l-3-6m3 6 4-4" stroke="#8eaa78" opacity=".35" fill="none" stroke-width="2"/><path d="M614 816l-3-6m3 6 4-4" stroke="#8eaa78" opacity=".35" fill="none" stroke-width="2"/><path d="M1044 250l-3-6m3 6 4-4" stroke="#8eaa78" opacity=".35" fill="none" stroke-width="2"/><path d="M637 631l-3-6m3 6 4-4" stroke="#8eaa78" opacity=".35" fill="none" stroke-width="2"/><path d="M1371 638l-3-6m3 6 4-4" stroke="#8eaa78" opacity=".35" fill="none" stroke-width="2"/><path d="M1162 644l-3-6m3 6 4-4" stroke="#8eaa78" opacity=".35" fill="none" stroke-width="2"/><path d="M662 342l-3-6m3 6 4-4" stroke="#8eaa78" opacity=".35" fill="none" stroke-width="2"/><path d="M1234 659l-3-6m3 6 4-4" stroke="#8eaa78" opacity=".35" fill="none" stroke-width="2"/><path d="M870 258l-3-6m3 6 4-4" stroke="#8eaa78" opacity=".35" fill="none" stroke-width="2"/><path d="M1070 782l-3-6m3 6 4-4" stroke="#8eaa78" opacity=".35" fill="none" stroke-width="2"/><path d="M1044 247l-3-6m3 6 4-4" stroke="#8eaa78" opacity=".35" fill="none" stroke-width="2"/><path d="M666 523l-3-6m3 6 4-4" stroke="#8eaa78" opacity=".35" fill="none" stroke-width="2"/><path d="M135 155l-3-6m3 6 4-4" stroke="#8eaa78" opacity=".35" fill="none" stroke-width="2"/><path d="M830 638l-3-6m3 6 4-4" stroke="#8eaa78" opacity=".35" fill="none" stroke-width="2"/><path d="M676 475l-3-6m3 6 4-4" stroke="#8eaa78" opacity=".35" fill="none" stroke-width="2"/><path d="M838 148l-3-6m3 6 4-4" stroke="#8eaa78" opacity=".35" fill="none" stroke-width="2"/><path d="M1342 266l-3-6m3 6 4-4" stroke="#8eaa78" opacity=".35" fill="none" stroke-width="2"/><path d="M99 201l-3-6m3 6 4-4" stroke="#8eaa78" opacity=".35" fill="none" stroke-width="2"/><path d="M448 579l-3-6m3 6 4-4" stroke="#8eaa78" opacity=".35" fill="none" stroke-width="2"/><path d="M1257 250l-3-6m3 6 4-4" stroke="#8eaa78" opacity=".35" fill="none" stroke-width="2"/><path d="M941 697l-3-6m3 6 4-4" stroke="#8eaa78" opacity=".35" fill="none" stroke-width="2"/><path d="M1360 712l-3-6m3 6 4-4" stroke="#8eaa78" opacity=".35" fill="none" stroke-width="2"/><path d="M291 501l-3-6m3 6 4-4" stroke="#8eaa78" opacity=".35" fill="none" stroke-width="2"/><path d="M1098 160l-3-6m3 6 4-4" stroke="#8eaa78" opacity=".35" fill="none" stroke-width="2"/><path d="M1301 791l-3-6m3 6 4-4" stroke="#8eaa78" opacity=".35" fill="none" stroke-width="2"/><path d="M825 486l-3-6m3 6 4-4" stroke="#8eaa78" opacity=".35" fill="none" stroke-width="2"/><path d="M287 447l-3-6m3 6 4-4" stroke="#8eaa78" opacity=".35" fill="none" stroke-width="2"/><path d="M1401 224l-3-6m3 6 4-4" stroke="#8eaa78" opacity=".35" fill="none" stroke-width="2"/><path d="M1046 293l-3-6m3 6 4-4" stroke="#8eaa78" opacity=".35" fill="none" stroke-width="2"/><path d="M1393 361l-3-6m3 6 4-4" stroke="#8eaa78" opacity=".35" fill="none" stroke-width="2"/><path d="M1046 493l-3-6m3 6 4-4" stroke="#8eaa78" opacity=".35" fill="none" stroke-width="2"/><path d="M1250 474l-3-6m3 6 4-4" stroke="#8eaa78" opacity=".35" fill="none" stroke-width="2"/><path d="M831 559l-3-6m3 6 4-4" stroke="#8eaa78" opacity=".35" fill="none" stroke-width="2"/><path d="M837 763l-3-6m3 6 4-4" stroke="#8eaa78" opacity=".35" fill="none" stroke-width="2"/><path d="M149 264l-3-6m3 6 4-4" stroke="#8eaa78" opacity=".35" fill="none" stroke-width="2"/><path d="M1427 786l-3-6m3 6 4-4" stroke="#8eaa78" opacity=".35" fill="none" stroke-width="2"/><path d="M711 182l-3-6m3 6 4-4" stroke="#8eaa78" opacity=".35" fill="none" stroke-width="2"/><path d="M136 358l-3-6m3 6 4-4" stroke="#8eaa78" opacity=".35" fill="none" stroke-width="2"/><path d="M1114 489l-3-6m3 6 4-4" stroke="#8eaa78" opacity=".35" fill="none" stroke-width="2"/><path d="M1060 495l-3-6m3 6 4-4" stroke="#8eaa78" opacity=".35" fill="none" stroke-width="2"/><path d="M1044 694l-3-6m3 6 4-4" stroke="#8eaa78" opacity=".35" fill="none" stroke-width="2"/><path d="M424 428l-3-6m3 6 4-4" stroke="#8eaa78" opacity=".35" fill="none" stroke-width="2"/><path d="M355 782l-3-6m3 6 4-4" stroke="#8eaa78" opacity=".35" fill="none" stroke-width="2"/><path d="M615 143l-3-6m3 6 4-4" stroke="#8eaa78" opacity=".35" fill="none" stroke-width="2"/><path d="M972 414l-3-6m3 6 4-4" stroke="#8eaa78" opacity=".35" fill="none" stroke-width="2"/><path d="M1266 820l-3-6m3 6 4-4" stroke="#8eaa78" opacity=".35" fill="none" stroke-width="2"/><path d="M604 585l-3-6m3 6 4-4" stroke="#8eaa78" opacity=".35" fill="none" stroke-width="2"/><path d="M677 416l-3-6m3 6 4-4" stroke="#8eaa78" opacity=".35" fill="none" stroke-width="2"/><path d="M895 629l-3-6m3 6 4-4" stroke="#8eaa78" opacity=".35" fill="none" stroke-width="2"/><path d="M985 792l-3-6m3 6 4-4" stroke="#8eaa78" opacity=".35" fill="none" stroke-width="2"/><path d="M1358 211l-3-6m3 6 4-4" stroke="#8eaa78" opacity=".35" fill="none" stroke-width="2"/><path d="M1092 789l-3-6m3 6 4-4" stroke="#8eaa78" opacity=".35" fill="none" stroke-width="2"/><path d="M968 469l-3-6m3 6 4-4" stroke="#8eaa78" opacity=".35" fill="none" stroke-width="2"/><path d="M348 712l-3-6m3 6 4-4" stroke="#8eaa78" opacity=".35" fill="none" stroke-width="2"/><path d="M291 490l-3-6m3 6 4-4" stroke="#8eaa78" opacity=".35" fill="none" stroke-width="2"/><path d="M1299 802l-3-6m3 6 4-4" stroke="#8eaa78" opacity=".35" fill="none" stroke-width="2"/><path d="M1004 490l-3-6m3 6 4-4" stroke="#8eaa78" opacity=".35" fill="none" stroke-width="2"/><path d="M1032 706l-3-6m3 6 4-4" stroke="#8eaa78" opacity=".35" fill="none" stroke-width="2"/><path d="M855 328l-3-6m3 6 4-4" stroke="#8eaa78" opacity=".35" fill="none" stroke-width="2"/><path d="M1189 655l-3-6m3 6 4-4" stroke="#8eaa78" opacity=".35" fill="none" stroke-width="2"/><path d="M1278 297l-3-6m3 6 4-4" stroke="#8eaa78" opacity=".35" fill="none" stroke-width="2"/><path d="M369 636l-3-6m3 6 4-4" stroke="#8eaa78" opacity=".35" fill="none" stroke-width="2"/><path d="M140 210l-3-6m3 6 4-4" stroke="#8eaa78" opacity=".35" fill="none" stroke-width="2"/><path d="M1192 801l-3-6m3 6 4-4" stroke="#8eaa78" opacity=".35" fill="none" stroke-width="2"/><path d="M707 342l-3-6m3 6 4-4" stroke="#8eaa78" opacity=".35" fill="none" stroke-width="2"/><path d="M371 771l-3-6m3 6 4-4" stroke="#8eaa78" opacity=".35" fill="none" stroke-width="2"/><path d="M890 379l-3-6m3 6 4-4" stroke="#8eaa78" opacity=".35" fill="none" stroke-width="2"/><path d="M474 238l-3-6m3 6 4-4" stroke="#8eaa78" opacity=".35" fill="none" stroke-width="2"/><path d="M98 157l-3-6m3 6 4-4" stroke="#8eaa78" opacity=".35" fill="none" stroke-width="2"/><path d="M977 336l-3-6m3 6 4-4" stroke="#8eaa78" opacity=".35" fill="none" stroke-width="2"/><path d="M718 441l-3-6m3 6 4-4" stroke="#8eaa78" opacity=".35" fill="none" stroke-width="2"/><path d="M127 125l-3-6m3 6 4-4" stroke="#8eaa78" opacity=".35" fill="none" stroke-width="2"/><path d="M104 251l-3-6m3 6 4-4" stroke="#8eaa78" opacity=".35" fill="none" stroke-width="2"/><path d="M1249 429l-3-6m3 6 4-4" stroke="#8eaa78" opacity=".35" fill="none" stroke-width="2"/><path d="M1381 438l-3-6m3 6 4-4" stroke="#8eaa78" opacity=".35" fill="none" stroke-width="2"/><path d="M92 165l-3-6m3 6 4-4" stroke="#8eaa78" opacity=".35" fill="none" stroke-width="2"/><path d="M507 456l-3-6m3 6 4-4" stroke="#8eaa78" opacity=".35" fill="none" stroke-width="2"/><path d="M718 215l-3-6m3 6 4-4" stroke="#8eaa78" opacity=".35" fill="none" stroke-width="2"/><path d="M918 360l-3-6m3 6 4-4" stroke="#8eaa78" opacity=".35" fill="none" stroke-width="2"/><path d="M70 817l-3-6m3 6 4-4" stroke="#8eaa78" opacity=".35" fill="none" stroke-width="2"/><path d="M266 648l-3-6m3 6 4-4" stroke="#8eaa78" opacity=".35" fill="none" stroke-width="2"/><path d="M1116 327l-3-6m3 6 4-4" stroke="#8eaa78" opacity=".35" fill="none" stroke-width="2"/><path d="M1056 551l-3-6m3 6 4-4" stroke="#8eaa78" opacity=".35" fill="none" stroke-width="2"/><path d="M299 555l-3-6m3 6 4-4" stroke="#8eaa78" opacity=".35" fill="none" stroke-width="2"/><path d="M1107 271l-3-6m3 6 4-4" stroke="#8eaa78" opacity=".35" fill="none" stroke-width="2"/><path d="M222 269l-3-6m3 6 4-4" stroke="#8eaa78" opacity=".35" fill="none" stroke-width="2"/><path d="M1417 800l-3-6m3 6 4-4" stroke="#8eaa78" opacity=".35" fill="none" stroke-width="2"/><path d="M779 731l-3-6m3 6 4-4" stroke="#8eaa78" opacity=".35" fill="none" stroke-width="2"/><path d="M963 792l-3-6m3 6 4-4" stroke="#8eaa78" opacity=".35" fill="none" stroke-width="2"/><path d="M172 379l-3-6m3 6 4-4" stroke="#8eaa78" opacity=".35" fill="none" stroke-width="2"/><path d="M909 799l-3-6m3 6 4-4" stroke="#8eaa78" opacity=".35" fill="none" stroke-width="2"/><path d="M477 148l-3-6m3 6 4-4" stroke="#8eaa78" opacity=".35" fill="none" stroke-width="2"/><path d="M653 185l-3-6m3 6 4-4" stroke="#8eaa78" opacity=".35" fill="none" stroke-width="2"/><path d="M1069 442l-3-6m3 6 4-4" stroke="#8eaa78" opacity=".35" fill="none" stroke-width="2"/><path d="M400 350l-3-6m3 6 4-4" stroke="#8eaa78" opacity=".35" fill="none" stroke-width="2"/><path d="M183 526l-3-6m3 6 4-4" stroke="#8eaa78" opacity=".35" fill="none" stroke-width="2"/><path d="M703 389l-3-6m3 6 4-4" stroke="#8eaa78" opacity=".35" fill="none" stroke-width="2"/><path d="M700 654l-3-6m3 6 4-4" stroke="#8eaa78" opacity=".35" fill="none" stroke-width="2"/><path d="M636 737l-3-6m3 6 4-4" stroke="#8eaa78" opacity=".35" fill="none" stroke-width="2"/><path d="M114 535l-3-6m3 6 4-4" stroke="#8eaa78" opacity=".35" fill="none" stroke-width="2"/><path d="M496 829l-3-6m3 6 4-4" stroke="#8eaa78" opacity=".35" fill="none" stroke-width="2"/><path d="M502 313l-3-6m3 6 4-4" stroke="#8eaa78" opacity=".35" fill="none" stroke-width="2"/><path d="M299 790l-3-6m3 6 4-4" stroke="#8eaa78" opacity=".35" fill="none" stroke-width="2"/><path d="M1082 279l-3-6m3 6 4-4" stroke="#8eaa78" opacity=".35" fill="none" stroke-width="2"/><path d="M714 364l-3-6m3 6 4-4" stroke="#8eaa78" opacity=".35" fill="none" stroke-width="2"/><path d="M1408 204l-3-6m3 6 4-4" stroke="#8eaa78" opacity=".35" fill="none" stroke-width="2"/><path d="M960 474l-3-6m3 6 4-4" stroke="#8eaa78" opacity=".35" fill="none" stroke-width="2"/><path d="M1106 682l-3-6m3 6 4-4" stroke="#8eaa78" opacity=".35" fill="none" stroke-width="2"/><use href="#tree" transform="translate(170 270) scale(1.6)"/><use href="#tree" transform="translate(260 195) scale(1.4)"/><use href="#tree" transform="translate(352 237) scale(1.2)"/><use href="#tree" transform="translate(430 162) scale(1.5)"/><use href="#tree" transform="translate(570 232) scale(1.4)"/><use href="#tree" transform="translate(697 166) scale(1.6)"/><use href="#tree" transform="translate(1220 230) scale(1.4)"/><use href="#tree" transform="translate(1350 272) scale(1.6)"/><use href="#tree" transform="translate(1415 332) scale(1.2)"/><use href="#tree" transform="translate(90 469) scale(1.6)"/><use href="#tree" transform="translate(130 597) scale(1.3)"/><use href="#tree" transform="translate(184 718) scale(1.1)"/><use href="#tree" transform="translate(507 764) scale(1.3)"/><use href="#tree" transform="translate(588 840) scale(1.2)"/><use href="#tree" transform="translate(976 842) scale(1.1)"/><use href="#tree" transform="translate(1278 713) scale(1.4)"/><use href="#tree" transform="translate(1381 606) scale(1.3)"/><use href="#tree" transform="translate(1253 517) scale(1.1)"/><use href="#tree" transform="translate(616 348) scale(0.85)"/><use href="#tree" transform="translate(988 680) scale(0.8)"/><g transform="translate(970 294) scale(0.95)" filter="url(#shadow)"><ellipse cx="5" cy="20" rx="110" ry="37" fill="#668163" opacity=".22"/><path d="M-88-83H56V22H-88Z" fill="#f5e6be" stroke="#8c785b" stroke-width="3"/><path d="M56-83l46-25V0L56 22Z" fill="#d8c99e" stroke="#8c785b" stroke-width="3"/><path d="M-108-81l72-81 114 0 43 57-66 28Z" fill="#789b98" stroke="#775e52" stroke-width="4"/><path d="M-108-81l73-82 74 82Z" fill="#789b98" stroke="#775e52" stroke-width="4"/><path d="M-92-83l58-65 58 65" fill="none" stroke="#f1c39a" stroke-opacity=".65" stroke-width="4"/><path d="M-88-27H55M-65-79V20M30-79V20" fill="none" stroke="#ae956f" stroke-width="7"/><path d="M-30 21v-47q0-23 25-23t25 23v47" fill="#6d775f" stroke="#9f8966" stroke-width="4"/><path d="M-75-66h24v28h-24zm86 0h23v28H11" fill="#94b4ae" stroke="#8f805f" stroke-width="3"/><path d="M-62-65v25M22-65v25" stroke="#ece0b8" stroke-width="3"/><path d="M-38 23h66v9h-66" fill="#bcae8c"/><path d="M58-91l40-20M50-107l35-20M36-124l34-20" stroke="#775e52" opacity=".35" stroke-width="3"/><path d="M-67-98v-85h47v82" fill="#e9dcb8" stroke="#8c785b" stroke-width="3"/><path d="M-78-181l34-47 35 47Z" fill="#789b98" stroke="#587572" stroke-width="3"/><circle cx="-43" cy="-159" r="13" fill="#faf0ce" stroke="#8c785b" stroke-width="3"/><path d="M-43-168v10l7 4" stroke="#76674d" fill="none" stroke-width="2"/></g><g transform="translate(377 419) scale(1.05)" filter="url(#shadow)"><ellipse cx="5" cy="20" rx="110" ry="37" fill="#668163" opacity=".22"/><path d="M-88-83H56V22H-88Z" fill="#f5e6be" stroke="#8c785b" stroke-width="3"/><path d="M56-83l46-25V0L56 22Z" fill="#d8c99e" stroke="#8c785b" stroke-width="3"/><path d="M-108-81l72-81 114 0 43 57-66 28Z" fill="#bd8065" stroke="#775e52" stroke-width="4"/><path d="M-108-81l73-82 74 82Z" fill="#bd8065" stroke="#775e52" stroke-width="4"/><path d="M-92-83l58-65 58 65" fill="none" stroke="#f1c39a" stroke-opacity=".65" stroke-width="4"/><path d="M-88-27H55M-65-79V20M30-79V20" fill="none" stroke="#ae956f" stroke-width="7"/><path d="M-30 21v-47q0-23 25-23t25 23v47" fill="#6d775f" stroke="#9f8966" stroke-width="4"/><path d="M-75-66h24v28h-24zm86 0h23v28H11" fill="#94b4ae" stroke="#8f805f" stroke-width="3"/><path d="M-62-65v25M22-65v25" stroke="#ece0b8" stroke-width="3"/><path d="M-38 23h66v9h-66" fill="#bcae8c"/><path d="M58-91l40-20M50-107l35-20M36-124l34-20" stroke="#775e52" opacity=".35" stroke-width="3"/></g><g transform="translate(1120 465) scale(1.1)" filter="url(#shadow)"><ellipse cx="5" cy="20" rx="110" ry="37" fill="#668163" opacity=".22"/><path d="M-88-83H56V22H-88Z" fill="#f5e6be" stroke="#8c785b" stroke-width="3"/><path d="M56-83l46-25V0L56 22Z" fill="#d8c99e" stroke="#8c785b" stroke-width="3"/><path d="M-108-81l72-81 114 0 43 57-66 28Z" fill="#78889a" stroke="#775e52" stroke-width="4"/><path d="M-108-81l73-82 74 82Z" fill="#78889a" stroke="#775e52" stroke-width="4"/><path d="M-92-83l58-65 58 65" fill="none" stroke="#f1c39a" stroke-opacity=".65" stroke-width="4"/><path d="M-88-27H55M-65-79V20M30-79V20" fill="none" stroke="#ae956f" stroke-width="7"/><path d="M-30 21v-47q0-23 25-23t25 23v47" fill="#6d775f" stroke="#9f8966" stroke-width="4"/><path d="M-75-66h24v28h-24zm86 0h23v28H11" fill="#94b4ae" stroke="#8f805f" stroke-width="3"/><path d="M-62-65v25M22-65v25" stroke="#ece0b8" stroke-width="3"/><path d="M-38 23h66v9h-66" fill="#bcae8c"/><path d="M58-91l40-20M50-107l35-20M36-124l34-20" stroke="#775e52" opacity=".35" stroke-width="3"/></g><g transform="translate(530 675) scale(1.05)" filter="url(#shadow)"><ellipse cx="5" cy="20" rx="110" ry="37" fill="#668163" opacity=".22"/><path d="M-88-83H56V22H-88Z" fill="#f5e6be" stroke="#8c785b" stroke-width="3"/><path d="M56-83l46-25V0L56 22Z" fill="#d8c99e" stroke="#8c785b" stroke-width="3"/><path d="M-108-81l72-81 114 0 43 57-66 28Z" fill="#b58b5b" stroke="#775e52" stroke-width="4"/><path d="M-108-81l73-82 74 82Z" fill="#b58b5b" stroke="#775e52" stroke-width="4"/><path d="M-92-83l58-65 58 65" fill="none" stroke="#f1c39a" stroke-opacity=".65" stroke-width="4"/><path d="M-88-27H55M-65-79V20M30-79V20" fill="none" stroke="#ae956f" stroke-width="7"/><path d="M-30 21v-47q0-23 25-23t25 23v47" fill="#6d775f" stroke="#9f8966" stroke-width="4"/><path d="M-75-66h24v28h-24zm86 0h23v28H11" fill="#94b4ae" stroke="#8f805f" stroke-width="3"/><path d="M-62-65v25M22-65v25" stroke="#ece0b8" stroke-width="3"/><path d="M-38 23h66v9h-66" fill="#bcae8c"/><path d="M58-91l40-20M50-107l35-20M36-124l34-20" stroke="#775e52" opacity=".35" stroke-width="3"/><path d="M-99-35H43l14 28H-112Z" fill="#688f7c" stroke="#486f60" stroke-width="3"/><path d="M-77-35l-7 28m36-28-2 28m31-28 3 28m27-28 8 28" stroke="#e6dfb8" stroke-width="13"/><path d="M-103-8v40M48-8v40" stroke="#8c785b" stroke-width="4"/></g><g transform="translate(1045 724) scale(0.85)" filter="url(#shadow)"><ellipse cx="5" cy="20" rx="110" ry="37" fill="#668163" opacity=".22"/><path d="M-88-83H56V22H-88Z" fill="#f5e6be" stroke="#8c785b" stroke-width="3"/><path d="M56-83l46-25V0L56 22Z" fill="#d8c99e" stroke="#8c785b" stroke-width="3"/><path d="M-108-81l72-81 114 0 43 57-66 28Z" fill="#bb7f67" stroke="#775e52" stroke-width="4"/><path d="M-108-81l73-82 74 82Z" fill="#bb7f67" stroke="#775e52" stroke-width="4"/><path d="M-92-83l58-65 58 65" fill="none" stroke="#f1c39a" stroke-opacity=".65" stroke-width="4"/><path d="M-88-27H55M-65-79V20M30-79V20" fill="none" stroke="#ae956f" stroke-width="7"/><path d="M-30 21v-47q0-23 25-23t25 23v47" fill="#6d775f" stroke="#9f8966" stroke-width="4"/><path d="M-75-66h24v28h-24zm86 0h23v28H11" fill="#94b4ae" stroke="#8f805f" stroke-width="3"/><path d="M-62-65v25M22-65v25" stroke="#ece0b8" stroke-width="3"/><path d="M-38 23h66v9h-66" fill="#bcae8c"/><path d="M58-91l40-20M50-107l35-20M36-124l34-20" stroke="#775e52" opacity=".35" stroke-width="3"/></g><g transform="translate(770 499)"><ellipse cy="20" rx="78" ry="37" fill="#a3b294"/><ellipse rx="68" ry="32" fill="#e6dfbf" stroke="#969e82" stroke-width="5"/><ellipse cy="-5" rx="53" ry="23" fill="#8ebdba" stroke="#bed4c2" stroke-width="4"/><path d="M-12-8v-39h24v39" fill="#d0d0ad" stroke="#969e82" stroke-width="3"/><ellipse cy="-45" rx="35" ry="14" fill="#a3cbc3" stroke="#dfe2bf" stroke-width="7"/><path d="M0-52v-31" stroke="#e7eed9" stroke-width="7"/><circle cy="-84" r="7" fill="#e7eed9"/></g><g fill="#f7edc6" stroke="#9c9272" stroke-width="2"><path d="M1387 789l72 30-79 46-58-33Z"/><path d="M1410 801l-75 43m96-34-75 43m94-34-74 42"/></g><use href="#bush" x="298" y="502"/><g fill="#f1d2b0"><circle cx="289" cy="490" r="3"/><circle cx="307" cy="494" r="3"/></g><use href="#bush" x="425" y="492"/><g fill="#f1d2b0"><circle cx="416" cy="480" r="3"/><circle cx="434" cy="484" r="3"/></g><use href="#bush" x="576" y="705"/><g fill="#f1d2b0"><circle cx="567" cy="693" r="3"/><circle cx="585" cy="697" r="3"/></g><use href="#bush" x="1074" y="525"/><g fill="#f1d2b0"><circle cx="1065" cy="513" r="3"/><circle cx="1083" cy="517" r="3"/></g><use href="#bush" x="919" y="779"/><g fill="#f1d2b0"><circle cx="910" cy="767" r="3"/><circle cx="928" cy="771" r="3"/></g><use href="#bush" x="987" y="320"/><g fill="#f1d2b0"><circle cx="978" cy="308" r="3"/><circle cx="996" cy="312" r="3"/></g><use href="#bush" x="1190" y="687"/><g fill="#f1d2b0"><circle cx="1181" cy="675" r="3"/><circle cx="1199" cy="679" r="3"/></g><use href="#bush" x="311" y="697"/><g fill="#f1d2b0"><circle cx="302" cy="685" r="3"/><circle cx="320" cy="689" r="3"/></g></svg>